<svg xmlns="http://www.w3.org/2000/svg" width="600" height="600" viewBox="0 0 600 600">
  <defs>
    <linearGradient id="bg" x1="0" y1="0" x2="1" y2="1">
      <stop offset="0" stop-color="#f7efe0"/>
      <stop offset="1" stop-color="#e7d8bc"/>
    </linearGradient>
    <linearGradient id="gold" x1="0" y1="0" x2="0" y2="1">
      <stop offset="0" stop-color="#e6c982"/>
      <stop offset="1" stop-color="#a9802f"/>
    </linearGradient>
  </defs>
  <rect width="600" height="600" fill="url(#bg)"/>
  <g transform="translate(225 0)">
    <path d="M0 150 a40 40 0 1 1 0.1 0" fill="none" stroke="url(#gold)" stroke-width="12"/>
    <line x1="0" y1="190" x2="0" y2="250" stroke="url(#gold)" stroke-width="6"/>
    <path d="M0 250 L42 320 L0 410 L-42 320 Z" fill="#cdb0e6" stroke="#9c79c0" stroke-width="3"/>
  </g>
  <g transform="translate(375 0)">
    <path d="M0 150 a40 40 0 1 1 0.1 0" fill="none" stroke="url(#gold)" stroke-width="12"/>
    <line x1="0" y1="190" x2="0" y2="250" stroke="url(#gold)" stroke-width="6"/>
    <path d="M0 250 L42 320 L0 410 L-42 320 Z" fill="#cdb0e6" stroke="#9c79c0" stroke-width="3"/>
  </g>
  <text x="300" y="540" font-family="Georgia, serif" font-size="38" fill="#8c6529" text-anchor="middle">Earrings</text>
</svg>
